<svg width="63" height="63" viewBox="0 0 63 63" xmlns="http://www.w3.org/2000/svg"><g id="svgGroup" stroke-linecap="round" fill-rule="evenodd" font-size="9pt" stroke="black" stroke-width="0" fill="#e4cb4e" style="stroke:black;stroke-width:0;fill:#e4cb4e" class=""><path d="M 9 9 L 9 4.5 L 9 0 L 18 0 L 27 0 L 27 4.5 L 27 9 L 31.5 9 L 36 9 L 36 4.5 L 36 0 L 45 0 L 54 0 L 54 4.5 L 54 9 L 58.5 9 L 63 9 L 63 13.5 L 63 18 L 58.5 18 L 54 18 L 54 31.5 L 54 45 L 58.5 45 L 63 45 L 63 49.5 L 63 54 L 58.5 54 L 54 54 L 54 58.5 L 54 63 L 45 63 L 36 63 L 36 58.5 L 36 54 L 31.5 54 L 27 54 L 27 58.5 L 27 63 L 18 63 L 9 63 L 9 58.5 L 9 54 L 4.5 54 L 0 54 L 0 49.5 L 0 45 L 4.5 45 L 9 45 L 9 31.5 L 9 18 L 4.5 18 L 0 18 L 0 13.5 L 0 9 L 4.5 9 L 9 9 Z M 36 45 L 36 31.5 L 36 18 L 31.5 18 L 27 18 L 27 31.5 L 27 45 L 31.5 45 L 36 45 Z"/></g></svg>